<?xml version="1.0" encoding="utf-8" ?>
<!-- Generator: Adobe Illustrator 19.1.0, SVG Export Plug-In . SVG Version: 6.00 Build 0)  -->
<!DOCTYPE svg PUBLIC "-//W3C//DTD SVG 1.1//EN" "http://www.w3.org/Graphics/SVG/1.1/DTD/svg11.dtd">
<svg version="1.1" id="Layer_1" xmlns="http://www.w3.org/2000/svg" xmlns:xlink="http://www.w3.org/1999/xlink" x="0px" y="0px" viewBox="0 0 124.7 180.3" style="enable-background:new 0 0 124.7 180.3;" xml:space="preserve">
    <style type="text/css">
        .st0 {
            fill: #E6B787;
        }
        
        .st1 {
            fill: #A57B22;
        }
        
        .st2 {
            fill: #352517;
        }
        
        .st3 {
            fill: #B9926C;
        }
        
        .st4 {
            fill: #0C133A;
        }
        
        .st5 {
            fill: #FFFFFF;
        }
        
        .st6 {
            fill: #CC3E00;
        }
    </style>
    <g>
        <rect x="35" y="34.5" class="st0" width="53.3" height="48.1" />
        <rect x="25.7" y="19" class="st1" width="71.7" height="25" />
        <rect x="35" y="29.9" class="st0" width="53.3" height="14.6" />
        <rect x="46.5" y="48.5" class="st2" width="6.4" height="10.4" />
        <rect x="46.5" y="70" class="st3" width="30.3" height="4.9" />
        <rect x="23.1" y="84.7" class="st4" width="76.3" height="22.9" />
        <rect x="7.6" y="89.8" class="st4" width="107.6" height="83.1" />
        <rect x="35" y="9" class="st1" width="53.3" height="22.2" />
        <rect x="87" y="44" class="st0" width="6.4" height="22.2" />
        <rect x="30" y="44" class="st0" width="6.4" height="22.2" />
        <rect x="6.6" y="116.9" class="st0" width="15.5" height="56" />
        <rect x="100.6" y="116.9" class="st0" width="15.6" height="56" />
        <rect x="6.4" y="116.8" class="st5" width="17.7" height="2.4" />
        <rect x="98.9" y="116.8" class="st5" width="17.3" height="2.4" />
        <rect x="70.4" y="48.5" class="st2" width="6.4" height="10.4" />
        <rect x="35" y="35.5" class="st0" width="15.8" height="9" />
        <rect x="48" y="5.9" class="st1" width="26.7" height="28.4" />
        <rect x="44.2" y="70" class="st3" width="34.5" height="3.3" />
        <rect x="49.5" y="111.2" class="st5" width="28.2" height="37.9" />
        <rect x="49" y="72" class="st3" width="25.3" height="4.8" />
        <rect x="49" y="69.5" class="st5" width="25.3" height="2.3" />
        <rect x="51.5" y="75.8" class="st5" width="20.3" height="1" />
        <path class="st6" d="M75.2,120.3l0.5-5.7h-26L51,132h18l-0.6,7.4l-5.8,1.7l-5.8-1.7l-0.4-4.6h-5.1l0.6,9.1l10.6,3.3h0.1v0l10.6-3.2

		l1.5-17.7H55.8l-0.4-5.9H75.2z M41.9,105h41.4l-3.8,46.9l-17,5.3l-16.9-5.3L41.9,105z" /> </g>
</svg>